<?xml version="1.0" encoding="utf-8"?><svg xml:space="preserve" viewBox="0 0 100 100" y="0px" x="0px" xmlns:xlink="http://www.w3.org/1999/xlink" xmlns="http://www.w3.org/2000/svg" id="圖層_1" version="1.1" width="47px" height="47px" style="width:100%;height:100%;background-size:initial;background-repeat-y:initial;background-repeat-x:initial;background-position-y:initial;background-position-x:initial;background-origin:initial;background-image:initial;background-color:rgb(241, 242, 243);background-clip:initial;background-attachment:initial;animation-play-state:paused" ><g class="ldl-scale" style="transform-origin:50% 50%;transform:rotate(0deg) scale(0.8, 0.8);animation-play-state:paused" ><path d="M48.3803,7.548C35.6127,8.3035,25.0217,18.2835,23.548,30.9882c-0.5258,4.5333,0.1043,8.8637,1.6118,12.757 l1.349,2.9465L46.433,90.21c1.3979,3.0533,5.7361,3.0533,7.134,0l19.9242-43.5183c0.5082-0.9487,0.9568-1.9334,1.349-2.9465 c1.1546-2.9821,1.7946-6.2207,1.7946-9.6105C76.6348,18.8884,63.8246,6.6341,48.3803,7.548z" fill="#C33737" style="fill:rgb(228, 102, 70);animation-play-state:paused" ></path>
<g style="animation-play-state:paused" ><path d="M28.397,48.3147l-1.2406-2.7097C27.5171,46.5367,27.9296,47.4423,28.397,48.3147z" fill="#E15B64" style="fill:rgb(225, 91, 100);animation-play-state:paused" ></path>
<line y2="26.5" x2="60" y1="46.5" x1="40" stroke-miterlimit="10" stroke-linejoin="round" stroke-linecap="round" stroke-width="7" stroke="#F5E169" fill="none" style="stroke:rgb(207, 207, 207);animation-play-state:paused" ></line>
<line y2="26.5" x2="40" y1="46.5" x1="60" stroke-miterlimit="10" stroke-linejoin="round" stroke-linecap="round" stroke-width="7" stroke="#F5E169" fill="none" style="stroke:rgb(207, 207, 207);animation-play-state:paused" ></line></g>
<metadata xmlns:d="https://loading.io/stock/" style="animation-play-state:paused" ><d:name style="animation-play-state:paused" >marker</d:name>


<d:tags style="animation-play-state:paused" >marker,map,location,pin,delete,remove</d:tags>


<d:license style="animation-play-state:paused" >by</d:license>


<d:slug style="animation-play-state:paused" >6bd7mb</d:slug></metadata></g><!-- generated by https://loading.io/ --></svg>